# xmcd
#
# Track frame offsets: 
#        150
#        21151
#        38797
#        67171
#        87073
#        117019
#        137092
#        161268
#        184570
#        217832
#
# Disc length: 4183 seconds
#
# Revision: 1
# Processed by: cddbd v1.5.2PL0 Copyright (c) Steve Scherf et al.
# Submitted via: ExactAudioCopyFreeDBPlugin 1.0
#
DISCID=7a10550a
DTITLE=The Road Band - Modern Blues
DYEAR=2004
DGENRE=Blues
TTITLE0=Stained Mirror Blues
TTITLE1=Chocolate and Honey
TTITLE2=Black Rose Blues
TTITLE3=I Staked My Life On Thee
TTITLE4=It's Only Money!
TTITLE5=Florina
TTITLE6=Cm Blues
TTITLE7=My Soul Is In The Sixties
TTITLE8=We've Got A Reason For The Blues
TTITLE9=Extra CD
EXTD=
EXTT0=
EXTT1=
EXTT2=
EXTT3=
EXTT4=
EXTT5=
EXTT6=
EXTT7=
EXTT8=
EXTT9=
PLAYORDER=
